<?xml version="1.0" standalone="no"?>
<!DOCTYPE svg PUBLIC "-//W3C//DTD SVG 20010904//EN"
 "http://www.w3.org/TR/2001/REC-SVG-20010904/DTD/svg10.dtd">
<svg version="1.0" xmlns="http://www.w3.org/2000/svg"
 width="1600.000000pt" height="900.000000pt" viewBox="0 0 1600.000000 900.000000"
 preserveAspectRatio="xMidYMid meet">

<g transform="translate(0.000000,900.000000) scale(0.100000,-0.100000)"
fill="#000000" stroke="none">
<path d="M8035 6194 c-103 -6 -246 -25 -338 -44 -80 -18 -458 -116 -727 -190
-58 -16 -224 -61 -370 -100 -302 -81 -346 -96 -450 -152 -225 -121 -386 -287
-496 -513 -161 -330 -163 -684 -6 -1003 49 -99 84 -152 175 -262 71 -85 248
-263 255 -255 2 2 15 -8 27 -23 13 -15 68 -60 123 -99 329 -235 778 -447 1301
-614 194 -62 436 -123 462 -116 10 3 17 2 14 -3 -5 -7 126 -30 295 -50 126
-15 441 -12 572 5 575 76 1071 400 1284 841 100 205 129 339 129 589 -1 251
-36 423 -137 665 -59 144 -202 396 -230 408 -4 2 -8 8 -8 14 0 16 -85 121
-172 213 -67 71 -88 87 -126 97 -42 10 -44 12 -21 20 l24 10 -40 34 c-323 280
-729 461 -1155 513 -89 11 -300 19 -385 15z m-750 -504 c-10 -11 -22 -20 -28
-20 -5 0 1 9 14 20 31 25 37 25 14 0z m-225 -184 c0 -2 -8 -10 -17 -17 -16
-13 -17 -12 -4 4 13 16 21 21 21 13z m-70 -70 c0 -2 -8 -10 -17 -17 -16 -13
-17 -12 -4 4 13 16 21 21 21 13z m2927 -273 c-3 -10 -5 -2 -5 17 0 19 2 27 5
18 2 -10 2 -26 0 -35z m-3017 -303 l0 -330 30 0 c17 0 30 -4 30 -10 0 -6 -40
-10 -100 -10 -60 0 -100 4 -100 10 0 6 15 10 34 10 19 0 38 5 42 12 4 7 3 8
-4 4 -9 -5 -12 67 -12 288 0 162 -3 301 -6 310 -4 11 -19 16 -42 16 -75 0 10
24 101 29 l27 1 0 -330z m2559 235 c77 -27 108 -94 76 -164 -17 -38 -63 -81
-91 -85 -38 -6 -30 -25 47 -104 48 -51 77 -88 72 -95 -5 -9 -2 -8 9 0 8 7 17
11 19 9 5 -5 8 37 9 127 0 50 3 68 13 65 19 -7 21 -113 3 -166 -18 -52 -16
-58 51 -104 28 -18 61 -31 91 -35 26 -2 49 -6 50 -8 11 -11 -55 -38 -89 -37
-35 2 -53 8 -99 34 -53 29 -63 30 -117 2 -53 -26 -183 -46 -183 -28 0 5 -13 9
-30 10 -35 1 -98 47 -111 81 -25 67 -3 132 59 173 21 14 39 27 42 31 3 3 14 9
25 13 18 7 18 8 3 17 -25 14 -68 98 -68 133 0 18 12 51 27 74 29 45 31 46 52
33 10 -6 11 -13 2 -29 -18 -34 -13 -96 10 -126 11 -14 17 -26 13 -26 -4 0 7
-11 25 -24 l33 -25 23 27 c36 44 45 68 45 126 0 47 -4 57 -26 75 -28 22 -64
27 -93 12 -10 -6 -23 -6 -31 -1 -12 8 -12 10 0 14 8 2 22 7 30 9 28 10 68 7
109 -8z m-2891 -11 c56 -23 82 -61 82 -118 0 -57 -21 -92 -52 -87 -4 0 -5 -5
-2 -12 5 -14 -34 -37 -64 -38 -9 0 7 -9 36 -20 29 -11 50 -25 47 -30 -3 -5 1
-6 9 -3 11 4 16 0 16 -11 0 -9 4 -14 9 -11 12 8 31 -40 31 -79 0 -58 -28 -102
-84 -132 -49 -27 -57 -28 -218 -31 -111 -2 -168 1 -168 8 0 5 15 10 34 10 l35
0 1 275 1 275 -35 0 c-19 0 -38 5 -41 10 -10 17 322 11 363 -6z m3339 -6 c-3
-8 -6 -5 -6 6 -1 11 2 17 5 13 3 -3 4 -12 1 -19z m-2583 -134 c9 -3 13 -10 10
-15 -3 -5 2 -6 11 -3 17 7 76 -51 101 -99 28 -53 31 -208 3 -192 -5 4 -9 -5
-9 -18 0 -50 -115 -117 -199 -117 -123 0 -214 101 -210 233 2 73 29 139 62
153 12 6 16 9 10 7 -39 -8 27 33 77 48 31 9 123 11 144 3z m525 -4 c38 -11 83
-48 75 -61 -3 -5 1 -6 9 -4 25 10 56 -73 58 -158 1 -73 0 -78 -35 -125 -40
-55 -81 -77 -164 -88 -55 -7 -127 10 -116 28 4 7 2 8 -4 4 -32 -19 -110 89
-119 163 -10 89 66 232 117 218 12 -3 17 0 13 8 -8 23 105 33 166 15z m621
-20 c17 -12 33 -32 36 -45 5 -21 9 -23 25 -14 11 5 17 14 15 18 -14 22 81 71
135 71 17 0 43 -9 59 -20 15 -11 29 -17 32 -15 3 3 13 -12 22 -34 15 -32 17
-62 14 -195 l-3 -156 33 0 c17 0 32 -4 32 -10 0 -6 -38 -10 -95 -10 -57 0 -95
4 -95 10 0 6 9 10 19 10 17 0 20 12 26 136 12 214 -1 254 -79 254 -30 0 -49
-7 -69 -25 -56 -52 -60 -66 -65 -220 l-5 -145 32 0 c17 0 31 -4 31 -10 0 -6
-37 -10 -90 -10 -53 0 -90 4 -90 10 0 6 9 10 20 10 19 0 20 7 20 173 0 204 -5
217 -75 217 -32 0 -51 -7 -75 -26 -54 -46 -60 -69 -60 -224 l0 -140 30 0 c17
0 30 -4 30 -10 0 -6 -40 -10 -100 -10 -60 0 -100 4 -100 10 0 6 14 10 30 10
l30 0 0 195 0 195 -40 0 c-22 0 -40 5 -40 10 0 6 32 10 76 10 l76 0 -3 -45
c-4 -56 3 -63 26 -28 25 40 46 58 80 71 42 16 120 7 155 -18z m1241 -477 c-12
-20 -14 -14 -5 12 4 9 9 14 11 11 3 -2 0 -13 -6 -23z m-2626 -94 c-4 -5 -19
-9 -36 -9 l-29 0 0 -269 c0 -206 -3 -271 -12 -274 -19 -8 128 -8 189 -1 51 6
52 8 73 55 11 27 23 49 25 49 3 0 5 -29 5 -65 l0 -65 -225 0 c-134 0 -225 4
-225 9 0 6 17 11 38 13 l37 3 0 275 0 275 -38 3 c-20 2 -36 6 -33 10 2 4 56 6
120 4 69 -2 114 -7 111 -13z m571 -149 c57 -22 94 -79 94 -146 l0 -34 -145 0
-145 0 0 -67 c1 -143 88 -210 200 -153 21 11 46 30 54 42 18 25 31 19 21 -11
-7 -24 -33 -40 -90 -58 -62 -19 -106 -16 -166 15 -71 36 -108 99 -109 184 0
148 75 237 202 238 31 0 69 -5 84 -10z m449 -7 c56 -27 65 -59 65 -244 l0
-159 34 0 c19 0 38 -4 41 -10 4 -6 -6 -10 -23 -10 -16 0 -50 -3 -76 -6 l-46
-7 0 42 c0 43 -14 56 -23 21 -6 -22 -84 -60 -124 -60 -38 0 -100 39 -113 71
-22 51 25 131 84 144 88 20 115 25 144 25 32 0 32 1 32 48 0 93 -9 119 -47
137 -63 30 -125 -8 -129 -78 -2 -45 -22 -60 -49 -37 -38 32 -7 104 55 129 41
16 136 13 175 -6z m323 -44 c-3 -27 -1 -49 3 -49 5 0 9 5 9 11 0 12 31 54 43
57 4 1 16 11 27 22 44 44 130 11 99 -37 -8 -14 -21 -17 -54 -15 -48 4 -98 -17
-115 -48 -6 -12 -9 -74 -8 -157 l3 -138 38 -3 c20 -2 37 -7 37 -13 0 -5 -48
-9 -110 -9 -71 0 -110 4 -110 11 0 5 8 9 18 8 43 -4 42 -7 42 196 l0 195 -35
0 c-19 0 -35 4 -35 10 0 9 126 19 144 11 4 -2 6 -26 4 -52z m619 41 c55 -33
58 -48 56 -232 l-3 -168 30 0 c17 0 30 -4 30 -10 0 -6 -37 -10 -90 -10 -53 0
-90 4 -90 10 0 6 8 10 19 10 17 0 19 11 23 127 5 154 -4 230 -29 249 -10 7
-35 14 -56 14 -30 0 -46 -8 -80 -39 l-42 -40 -3 -155 -4 -156 36 0 c20 0 36
-4 36 -10 0 -6 -42 -10 -105 -10 -58 0 -105 4 -105 9 0 5 12 11 28 13 l27 3 3
170 c3 205 2 215 -38 215 -17 0 -30 4 -30 8 0 5 32 10 70 11 l70 2 0 -45 c0
-26 3 -46 8 -46 4 0 18 16 32 35 14 19 39 41 55 49 42 22 113 20 152 -4z
m-2960 -422 c-3 -7 -5 -2 -5 12 0 14 2 19 5 13 2 -7 2 -19 0 -25z m3093 -102
c0 -2 -8 -10 -17 -17 -16 -13 -17 -12 -4 4 13 16 21 21 21 13z"/>
<path d="M9450 4885 c-7 -9 -8 -15 -2 -15 5 0 12 7 16 15 3 8 4 15 2 15 -2 0
-9 -7 -16 -15z"/>
<path d="M9308 4780 c-59 -46 -63 -159 -9 -214 29 -29 37 -31 100 -31 59 0 73
4 110 29 37 26 40 31 24 39 -10 5 -59 52 -109 104 l-90 94 -26 -21z"/>
<path d="M6360 4954 l0 -126 62 4 c34 3 64 10 66 16 2 6 9 9 16 6 6 -2 22 13
34 35 25 44 27 55 10 45 -10 -6 -10 -4 0 7 23 24 14 78 -17 110 -27 27 -35 29
-100 29 l-71 0 0 -126z"/>
<path d="M6540 4860 c8 -5 20 -10 25 -10 6 0 3 5 -5 10 -8 5 -19 10 -25 10 -5
0 -3 -5 5 -10z"/>
<path d="M6362 4670 c2 -163 0 -161 105 -140 90 19 126 64 122 153 -2 42 -8
57 -30 79 -30 30 -70 44 -94 34 -9 -3 -13 -2 -10 4 4 6 -14 10 -44 10 l-51 0
2 -140z"/>
<path d="M7207 4933 c-24 -6 -48 -30 -67 -67 -20 -39 -19 -313 1 -300 3 2 17
-8 29 -21 19 -20 33 -25 75 -25 63 0 98 27 114 86 14 52 13 210 -2 254 -20 58
-85 90 -150 73z"/>
<path d="M7733 4929 c-19 -6 -42 -24 -56 -44 -21 -30 -24 -48 -26 -144 -3
-122 9 -164 55 -200 24 -19 38 -22 81 -19 30 3 61 12 71 21 30 28 43 91 41
200 -1 89 -5 106 -26 139 -14 20 -39 41 -55 47 -36 13 -41 13 -85 0z"/>
<path d="M7508 4167 c-22 -18 -48 -77 -48 -109 0 -5 47 -8 105 -8 l105 0 0 35
c0 42 -22 90 -45 99 -36 13 -90 6 -117 -17z"/>
<path d="M7997 3965 c-26 -7 -50 -12 -54 -12 -8 2 -14 -25 -20 -89 -4 -47 -3
-51 22 -62 28 -13 91 -7 101 9 3 5 10 7 15 3 5 -3 8 -2 7 3 -1 4 5 19 14 33 9
14 18 48 19 75 3 49 3 50 -26 52 -17 1 -51 -4 -78 -12z"/>
</g>
</svg>
